<svg version="1.1" viewBox="0 0 2048 851" width="1032" height="429" xmlns="http://www.w3.org/2000/svg">
<path transform="translate(0)" d="m0 0h2048v851h-2048z" fill="#e9ecef"/>
<path transform="translate(579,130)" d="m0 0h234l36 1 2 1 1 20 4 17 5 12 10 15 12 12 14 9 14 6 13 3 8 1h12l17-3 14-5 11-6 10-8 9-9 4 2 11 9 22 22 9 11-2 4-10 10-9 14-6 15-3 12-1 18 3 19 6 16 9 14 9 10 8 7 13 8 16 6 10 2 22 1 1 10v44l-1 9-2 1h-15l-20 4-17 8-11 8-7 6-10 13-8 16-4 13-2 12v14l3 17 6 16 7 11 9 11 5 4-1 4-13 15-21 21-7 6-4-1-10-10-14-9-11-5-14-4-7-1h-20l-15 3-15 6-14 9-12 11-10 14-7 16-4 17-1 19-19 2h-278l-8-4-7-8-3-7v-11l4-9 7-6 5-2 107-1 15-3 13-7 7-6 9-14 4-14v-15l-3-11-6-12-10-10-16-8-10-2-169-1-8-4-7-8-3-7v-11l4-9 8-7 4-2 7-1 100-1 24-1 12-4 11-8 7-11 3-9v-17l-5-13-7-9-11-7-9-3-296-1-10-3-8-7-3-5-1-4v-10l3-8 4-5 8-5 4-1 298-1 12-4 10-7 7-10 4-11v-17l-4-11-6-9-7-6-10-5-4-1-14-1h-111l-9-2-6-4-6-7-3-7v-10l4-10 8-7 5-2 165-1 13-3 11-7 6-7 5-10 2-7v-14l-4-12-7-10-9-7-10-4-5-1-104-1-9-4-7-8-3-7v-11l4-9 7-6 5-2z" fill="#3C3E3F"/>
<path transform="translate(812,286)" d="m0 0h12l19 2 20 5 19 8 14 8 12 9 12 11 10 11 10 15 8 15 6 17 4 16 2 22-1 20-4 20-6 17-8 16-7 11-8 10-9 10-11 9-11 8-16 9-18 7-22 5-8 1h-25l-19-3-17-5-23-11-16-11-13-12-7-7-11-15-10-18-7-19-4-18-1-8v-28l3-18 8-24 10-19 12-16 12-13 14-11 13-8 16-8 15-5 20-4z" fill="#3C3E3F"/>
<path transform="translate(1346,289)" d="m0 0h81l23 2 17 4 12 5 11 8 7 8 6 13 3 13v31l-4 20-5 14-7 13-9 10-8 8-14 9-9 4 12 36 24 71-1 4h-55l-5-2-11-39-17-61v-2l-20 1-14 100-1 2-19 1h-35l1-13 18-129 18-128z" fill="#3C3E3F"/>
<path transform="translate(805,260)" d="m0 0h27l21 3 19 5 19 8 17 9 14 10 12 11 13 13 11 15 8 13 8 17 7 21 4 21 1 10v23l-3 22-5 19-6 15-8 16-7 11-10 13-11 12-12 11-16 11-16 9-17 7-21 6-19 3h-33l-19-3-21-6-21-9-15-9-12-9-10-9-6-5-7-8-10-13-8-13-8-16-6-16-5-19-2-12-1-13v-14l2-19 4-19 7-20 10-20 11-16 9-11 15-15 13-10 18-11 17-8 19-6 20-4zm7 26-18 2-20 5-21 9-16 10-10 8-12 11-11 14-9 14-8 17-6 19-3 18v28l3 18 6 20 8 16 7 12 11 14 13 13 13 10 16 9 15 7 17 5 19 3h25l18-3 18-5 18-8 16-10 11-9 10-9 9-11 7-10 9-16 7-19 4-17 2-19-1-21-3-17-5-16-7-16-9-15-11-14-12-12-13-10-15-9-18-8-18-5-12-2-12-1z" fill="#e9ecef"/>
<path transform="translate(1567,289)" d="m0 0h141l-6 43-1 4-83 1-10 69-1 4h70l-6 44h-70l-2 18-12 85-2 4-57-1 3-24 24-171 10-71z" fill="#3C3E3F"/>
<path transform="translate(1733,290)" d="m0 0h168l1 3-7 44-54 1-3 16-28 199-2 8-20 1h-36l-1-5 28-203 2-15 1-2h-56l6-46z" fill="#3C3E3F"/>
<path transform="translate(310,526)" d="m0 0h59l27 1 10 5 6 9 2 7-1 9-4 8-7 6-8 3h-87l-8-3-7-6-4-8-1-7 2-9 6-9 6-4z" fill="#3C3E3F"/>
<path transform="translate(1412,331)" d="m0 0 16 1 10 4 8 9 3 11v12l-3 17-5 12-6 9-8 6-7 3-5 1h-33l11-82 2-2z" fill="#e9ecef"/>
</svg>